<svg width="74" height="69" viewBox="0 0 74 69" fill="none" xmlns="http://www.w3.org/2000/svg">
<rect width="74" height="69" rx="12" fill="white"/>
<path d="M16.9585 55.7758C15.8451 55.7758 14.8987 55.4311 14.1193 54.7416C13.3399 54.0522 12.9502 53.2149 12.9502 52.23V16.7717C12.9502 15.7867 13.3399 14.9495 14.1193 14.26C14.8987 13.5706 15.8451 13.2258 16.9585 13.2258H30.6537C30.8764 11.8469 31.5889 10.7142 32.7914 9.82773C33.9939 8.94128 35.3969 8.49805 37.0002 8.49805C38.6035 8.49805 40.0064 8.94128 41.2089 9.82773C42.4114 10.7142 43.124 11.8469 43.3467 13.2258H57.0419C58.1553 13.2258 59.1017 13.5706 59.8811 14.26C60.6605 14.9495 61.0502 15.7867 61.0502 16.7717V52.23C61.0502 53.2149 60.6605 54.0522 59.8811 54.7416C59.1017 55.4311 58.1553 55.7758 57.0419 55.7758H16.9585ZM16.9585 52.23H57.0419V16.7717H16.9585V52.23ZM23.6391 46.3203H41.877V42.7744H23.6391V46.3203ZM23.6391 36.2737H50.3613V32.7279H23.6391V36.2737ZM23.6391 26.2272H50.3613V22.6814H23.6391V26.2272ZM37.0002 15.767C37.6237 15.767 38.1693 15.5602 38.6369 15.1465C39.1046 14.7328 39.3384 14.2502 39.3384 13.6986C39.3384 13.147 39.1046 12.6644 38.6369 12.2507C38.1693 11.837 37.6237 11.6302 37.0002 11.6302C36.3767 11.6302 35.8311 11.837 35.3635 12.2507C34.8958 12.6644 34.662 13.147 34.662 13.6986C34.662 14.2502 34.8958 14.7328 35.3635 15.1465C35.8311 15.5602 36.3767 15.767 37.0002 15.767ZM16.9585 52.23V16.7717V52.23Z" fill="#9BB7F9"/>
</svg>
