<svg width="1165" height="657" viewBox="0 0 1165 657" fill="none" xmlns="http://www.w3.org/2000/svg">
<path d="M916.5 596C647.624 486.532 48.5 419.5 289.778 2.66064C6.73258 153.997 0.349278 610.992 0.0820159 639.491C23.1197 653.58 490.579 648.242 579.692 648.075C1151.5 647 1083.5 663.991 916.5 596Z" fill="#BDD1FF"/>
<path d="M1117 497.5C828.817 462.451 877.179 276.643 410.5 323.5C127.455 474.836 13.6571 588.384 13.3899 616.883C36.4275 630.972 503.887 625.634 593 625.467C1164.81 624.392 1228 511 1117 497.5Z" fill="#BDD1FF"/>
<path d="M904 562C360.5 639 664.18 341.143 197.5 388C-85.5452 539.336 115.767 533.502 115.5 562C138.538 576.089 285.387 646.668 374.5 646.5C946.308 645.425 1501.88 477.297 904 562Z" fill="#9BB9FF"/>
<path d="M396.362 523.078C388.959 544.478 440.245 609.969 392.542 598.458C361.119 590.107 200.981 521.361 203.56 513.307C132.845 447.121 218.726 404.592 234.233 414.18C293.423 426.249 399.901 503.888 396.362 523.078Z" fill="#A7C1FF"/>
<path d="M952.011 512.861C948.174 535.178 788.048 529.471 739.111 525.844C706.749 522.696 537.587 480.813 538.826 472.447C907.494 526.814 536.172 362.712 553.028 369.659C613.391 371.976 952.393 493.352 952.011 512.861Z" fill="#9BB9FF"/>
</svg>
