<svg width="1362" height="575" viewBox="0 0 1362 575" fill="none" xmlns="http://www.w3.org/2000/svg">
<g clip-path="url(#clip0_245_68)">
<path d="M983.617 538.047C669.274 442.241 -31.1607 383.576 250.917 18.7617C-79.9909 151.21 -87.4537 551.167 -87.7661 576.109C-60.8328 588.44 485.673 583.768 589.855 583.622C1258.36 582.681 1178.86 597.552 983.617 538.047Z" fill="#BDD1FF"/>
<path d="M1305.88 435.406C968.969 404.732 1025.51 242.115 479.915 283.123C149.008 415.571 15.9667 514.947 15.6543 539.889C42.5875 552.22 589.094 547.548 693.276 547.402C1361.78 546.461 1435.65 447.222 1305.88 435.406Z" fill="#BDD1FF"/>
<path d="M1056.87 491.856C421.46 559.246 776.492 298.564 230.897 339.573C-100.011 472.021 135.343 466.915 135.031 491.856C161.965 504.187 333.645 565.957 437.827 565.81C1106.33 564.869 1755.85 417.725 1056.87 491.856Z" fill="#9BB9FF"/>
<path d="M463.386 457.793C454.731 476.522 514.69 533.839 458.92 523.765C422.184 516.456 234.966 456.29 237.982 449.242C155.309 391.316 255.712 354.095 273.841 362.487C343.04 373.049 467.524 440.998 463.386 457.793Z" fill="#A7C1FF"/>
<path d="M1112.99 448.851C1108.51 468.383 921.306 463.388 864.094 460.214C826.259 457.459 628.492 420.803 629.941 413.481C1060.95 461.063 626.838 317.442 646.544 323.522C717.115 325.55 1113.44 431.777 1112.99 448.851Z" fill="#9BB9FF"/>
<path d="M825.291 531.154C861.142 692.664 1103.51 527.509 923.448 622.029C642.621 560.76 681.079 427.471 966.001 396.126C1356.03 383.114 1408.99 291.443 1339.21 417.194C1265.27 550.457 1136.1 567.76 825.291 531.154Z" fill="#95B0F1"/>
<path d="M1220.84 359.404C1372.67 269.108 1309.39 35.5151 1443.89 269.11C1464.45 464.286 1370.59 497.299 1361.91 527.487C1339.63 537.048 802.404 724.196 781.577 527.488C765.55 376.118 1182.98 599.575 1220.84 359.404Z" fill="#97B5FB"/>
<path d="M1303.61 400.254C1303.61 449.122 1206.63 488.739 1087 488.739C967.373 488.739 870.395 449.122 870.395 400.254C887.767 260.981 1303.61 400.254 1294.38 251.557C1414.01 251.557 1303.61 351.385 1303.61 400.254Z" fill="#A7C1FF"/>
<path d="M1383.65 478.069C1274.11 379.298 1548.99 310.556 1372.92 310.656C1256.28 312.789 1057.63 391.336 1059.87 414.651C1067.58 440.103 1108.64 498.129 1177.71 497.082C1246.77 496.036 1383.61 502.376 1383.65 478.069Z" fill="#A7C1FF"/>
<path d="M808.631 573.313C808.631 499.457 1429.73 548.065 1277.27 498.182C1378.75 490.375 1446.39 470.606 1447 498.182C1443.1 528.749 1219.64 660.942 1207.67 653.715C969.45 653.715 757.725 614.733 808.631 573.313Z" fill="#9BB9FF"/>
<path d="M807.206 497.692C813.278 478.309 780.975 471.444 833.174 481.211C867.626 488.339 966.746 493.957 964.683 501.249C1046.36 560.007 957.924 599.433 940.444 590.988C875.869 580.862 805.089 515.033 807.206 497.692Z" fill="#A7C1FF"/>
<path d="M1287.15 263.981C1318.37 211.64 1220.46 173.006 1276.07 199.626C1362.26 259.97 1281.8 369.434 1276.07 379.051C1266.01 380.259 1119.81 309.238 1091.9 295.876C1036.3 269.258 1254.67 343.429 1287.15 263.981Z" fill="#BDD1FF"/>
<path d="M1242.55 141.878C1236.97 102.425 1189.59 116.049 1220.63 112.975C1275.27 118.905 1287.92 211.703 1285.56 214.326C1281.99 218.254 1244.34 195.021 1152.58 231.321C1091.5 255.482 1256.88 196.943 1242.55 141.878Z" fill="#BDD1FF"/>
<path d="M967.553 357.132C1130.07 266.844 1047.2 276.648 1184.85 338.253C1274.43 381.748 1290.05 358.09 1270.16 387.65C1244.33 418.077 1202.17 468.754 1113.87 453.776C1060.65 428.3 948.679 388.776 967.553 357.132Z" fill="#BDD1FF"/>
<path d="M1236.1 352.487C1094.99 479.46 1174.6 452.264 1025.9 416.718C928.429 390.054 944.18 418.831 918.47 381.95C873.397 326.298 1013.64 266.943 1071.47 282.405C1129.3 297.868 1248.02 315.812 1236.1 352.487Z" fill="#BDD1FF"/>
<path d="M918.277 338.111C1080.79 247.823 965.205 344.047 1079.04 394.215C1168.61 437.711 1201.65 415.455 1181.76 445.015C1155.93 475.443 1062.24 473.396 978.324 452.681C919.388 438.132 886.921 380.294 918.277 338.111Z" fill="#BDD1FF"/>
<path d="M1182.4 441.734C1183.62 443.13 1184.23 444.431 1184.35 445.642C1184.47 446.846 1184.11 448.02 1183.29 449.18C1181.61 451.532 1178.04 453.756 1172.92 455.801C1162.7 459.878 1146.69 463.092 1128.65 465.363C1092.57 469.903 1048.61 470.637 1027.18 467.046C976.568 458.562 947.719 441.806 931.26 426.612C916.479 412.968 911.66 400.561 910.045 396.399C909.862 395.928 909.72 395.561 909.609 395.312C907.635 390.862 907.915 387.15 909.864 384.02C911.834 380.856 915.551 378.212 920.609 376.033C930.72 371.679 945.907 369.303 962.089 368.207C978.254 367.112 995.351 367.298 1009.24 368.032C1016.19 368.398 1022.33 368.903 1027.15 369.452C1031.99 370.002 1035.44 370.595 1037.06 371.125C1037.16 371.158 1037.26 371.192 1037.36 371.227C1037.94 371.422 1038.59 371.644 1039.27 371.705C1076.16 374.958 1111.71 392.199 1138.19 408.788C1151.42 417.08 1162.37 425.199 1170.07 431.311C1173.92 434.366 1176.96 436.92 1179.07 438.739C1180.11 439.65 1180.92 440.376 1181.5 440.89C1181.78 441.147 1182 441.351 1182.15 441.496C1182.24 441.57 1182.29 441.629 1182.33 441.67C1182.38 441.711 1182.4 441.729 1182.4 441.733V441.734Z" fill="#EAF0FF" stroke="#BDD1FF"/>
<mask id="mask0_245_68" style="mask-type:alpha" maskUnits="userSpaceOnUse" x="908" y="383" width="273" height="68">
<path d="M1180.8 450.777C1099.81 433.125 1012.02 399.638 1004.57 396.78C978.003 386.591 948.922 381.787 908.968 389.308C950.443 376.55 991.746 387.821 1008.66 394.687C1041.52 406.522 1107.01 432.821 1180.8 450.777Z" fill="white"/>
</mask>
<g mask="url(#mask0_245_68)">
<path d="M1180.8 450.775C1099.81 433.124 1012.02 399.636 1004.57 396.778C978.003 386.589 948.922 381.785 908.968 389.306C950.443 376.548 991.746 387.819 1008.66 394.685C1041.52 406.52 1107.01 432.819 1180.8 450.775Z" fill="#EAF0FF"/>
<path d="M1180.8 450.776L1177.93 460.785L1183.95 440.829L1180.8 450.776ZM1004.57 396.779L1009.09 387.258L1004.57 396.779ZM908.968 389.307L905.827 379.563L910.799 399.375L908.968 389.307ZM1008.66 394.686L1003.94 404.126L1004.15 404.21L1004.35 404.285L1008.66 394.686ZM1183.68 440.767C1103.61 423.315 1016.51 390.106 1009.09 387.258L1000.05 406.299C1007.53 409.166 1096.02 442.934 1177.93 460.785L1183.68 440.767ZM1009.09 387.258C980.712 376.378 949.43 371.278 907.139 379.238L910.799 399.375C948.414 392.296 975.294 396.805 1000.05 406.299L1009.09 387.258ZM912.11 399.051C949.847 387.442 988.153 397.717 1003.94 404.126L1013.38 385.244C995.34 377.923 951.037 365.654 905.827 379.563L912.11 399.051ZM1004.35 404.285C1036.78 415.961 1103.1 442.581 1177.65 460.724L1183.95 440.829C1110.93 423.061 1046.26 397.079 1012.96 385.087L1004.35 404.285Z" fill="#BDD1FF"/>
</g>
<mask id="mask1_245_68" style="mask-type:alpha" maskUnits="userSpaceOnUse" x="915" y="402" width="171" height="70">
<path d="M1085.93 471.414C1063.8 448.958 1014.35 424.339 1007.18 420.939C981.649 408.815 955.964 403.811 915.392 408.312C957.977 398.712 964.331 404.059 980.428 405.354C991.315 406.232 1038.87 420.975 1085.93 471.414Z" fill="white"/>
</mask>
<g mask="url(#mask1_245_68)">
<path d="M1085.93 471.414C1063.8 448.958 1014.35 424.339 1007.18 420.939C981.649 408.815 955.964 403.811 915.392 408.312C957.976 398.712 964.33 404.059 980.428 405.354C991.315 406.232 1038.87 420.975 1085.93 471.414Z" fill="#EAF0FF"/>
<path d="M1085.93 471.413L1077.56 478.393L1094.5 464.635L1085.93 471.413ZM1007.18 420.939L1012.56 411.846L1007.18 420.939ZM915.392 408.313L913.082 398.412L916.359 418.439L915.392 408.313ZM980.428 405.354L981.773 395.192L980.428 405.354ZM1094.31 464.437C1082.23 452.179 1063.3 439.832 1047.16 430.38C1030.82 420.807 1016.38 413.657 1012.56 411.846L1001.8 430.03C1005.15 431.619 1019.02 438.479 1034.73 447.679C1050.64 457.003 1067.51 468.191 1077.56 478.393L1094.31 464.437ZM1012.56 411.846C984.914 398.719 956.986 393.464 914.426 398.186L916.359 418.439C954.941 414.158 978.382 418.911 1001.8 430.03L1012.56 411.846ZM917.702 418.214C938.442 413.537 949.558 412.69 957.059 412.941C960.821 413.067 963.918 413.476 967.287 413.987C970.586 414.486 974.529 415.15 979.081 415.516L981.773 395.192C978.277 394.911 975.388 394.422 971.639 393.853C967.959 393.298 963.786 392.725 958.626 392.553C948.279 392.207 934.926 393.487 913.082 398.412L917.702 418.214ZM979.081 415.516C982.264 415.772 995.295 418.904 1013.82 428.68C1031.95 438.253 1054.66 453.852 1077.37 478.193L1094.5 464.635C1070.15 438.537 1045.55 421.542 1025.41 410.916C1005.67 400.491 989.477 395.813 981.773 395.192L979.081 415.516Z" fill="#BDD1FF"/>
</g>
</g>
<defs>
<clipPath id="clip0_245_68">
<rect width="1362" height="575" fill="white"/>
</clipPath>
</defs>
</svg>
