<svg width="1362" height="413" viewBox="0 0 1362 413" fill="none" xmlns="http://www.w3.org/2000/svg">
<g clip-path="url(#clip0_254_3)">
<path d="M1362 242.26H0V412.26H1362V242.26Z" fill="#BDD1FF"/>
<path d="M1231.66 348.649C1128.34 254.327 1387.6 188.681 1221.53 188.777C1111.53 190.814 924.16 265.823 926.271 288.088C933.543 312.393 972.267 367.805 1037.41 366.805C1102.55 365.806 1231.62 371.861 1231.66 348.649Z" fill="#A7C1FF"/>
<path d="M1140.64 144.204C1170.08 94.2217 1077.74 57.3277 1130.18 82.7477C1211.48 140.375 1135.59 244.908 1130.18 254.092C1120.7 255.245 982.807 187.422 956.485 174.663C904.039 149.243 1110 220.073 1140.64 144.204Z" fill="#BDD1FF"/>
<path d="M1098.57 27.6012C1093.31 -10.0749 1048.62 2.9362 1077.89 0C1129.44 5.6632 1141.37 94.2812 1139.13 96.7862C1135.77 100.538 1100.26 78.3512 1013.71 113.015C956.103 136.088 1112.09 80.1862 1098.57 27.6012Z" fill="#BDD1FF"/>
<path d="M839.201 233.16C992.482 146.94 914.318 156.302 1044.15 215.132C1128.64 256.668 1143.37 234.075 1124.61 262.304C1100.25 291.361 1060.49 339.755 977.201 325.452C927.012 301.124 821.4 263.38 839.201 233.16Z" fill="#BDD1FF"/>
<path d="M1092.49 228.724C959.392 349.978 1034.48 324.008 894.237 290.062C802.3 264.599 817.156 292.08 792.907 256.86C750.395 203.715 882.671 147.033 937.217 161.799C991.761 176.565 1103.73 193.701 1092.49 228.724Z" fill="#BDD1FF"/>
<path d="M792.725 214.994C946.006 128.774 836.987 220.663 944.349 268.572C1028.83 310.108 1059.99 288.855 1041.23 317.084C1016.88 346.141 928.509 344.186 849.361 324.404C793.774 310.511 763.15 255.278 792.725 214.994Z" fill="#BDD1FF"/>
<path d="M1041.84 313.95C1043 315.282 1043.57 316.525 1043.68 317.681C1043.79 318.831 1043.46 319.952 1042.68 321.06C1041.09 323.306 1037.73 325.43 1032.9 327.383C1023.26 331.276 1008.16 334.346 991.144 336.514C957.116 340.85 915.652 341.551 895.438 338.121C847.704 330.019 820.494 314.019 804.97 299.509C791.029 286.48 786.484 274.631 784.961 270.656C784.788 270.206 784.653 269.856 784.549 269.618C782.687 265.369 782.952 261.824 784.791 258.835C786.648 255.814 790.155 253.288 794.925 251.208C804.461 247.05 818.784 244.781 834.047 243.735C849.294 242.689 865.419 242.866 878.523 243.567C885.074 243.917 890.865 244.399 895.41 244.923C899.973 245.449 903.233 246.015 904.755 246.521C904.848 246.552 904.945 246.585 905.044 246.619C905.587 246.805 906.202 247.017 906.844 247.074C941.632 250.181 975.169 266.646 1000.14 282.488C1012.62 290.406 1022.95 298.16 1030.21 303.996C1033.84 306.914 1036.71 309.352 1038.69 311.09C1039.68 311.959 1040.45 312.653 1040.99 313.144C1041.25 313.389 1041.46 313.584 1041.6 313.723C1041.68 313.793 1041.74 313.849 1041.78 313.889C1041.82 313.927 1041.84 313.945 1041.84 313.949V313.95Z" fill="#EAF0FF" stroke="#BDD1FF"/>
<path d="M1040.33 322.587C963.944 305.731 881.138 273.751 874.111 271.022C849.057 261.293 821.629 256.705 783.946 263.887C823.063 251.703 862.019 262.467 877.971 269.024C908.964 280.325 970.736 305.44 1040.33 322.587Z" fill="#EAF0FF"/>
<path d="M950.854 342.294C929.978 320.849 883.335 297.339 876.579 294.092C852.495 282.515 828.27 277.736 790.004 282.035C830.169 272.866 836.161 277.973 851.344 279.21C861.612 280.047 906.468 294.126 950.854 342.294Z" fill="#EAF0FF"/>
<path d="M187.578 136.957C228.697 114.523 258.081 186.928 233.466 143.909C179.732 76.7335 101.755 138.343 94.1997 142.466C93.7342 150.086 159.294 263.224 171.648 284.816C196.262 327.835 124.394 159.67 187.578 136.957Z" fill="#BDD1FF"/>
<path d="M128.074 377.939C193.374 256.495 189.662 319.349 132.235 212.959C92.0824 143.644 110.589 132.354 87.4842 146.742C63.9784 165.632 18.0319 222.893 41.5876 264.062C65.1433 305.232 103.213 391.503 128.074 377.939Z" fill="#BDD1FF"/>
<path d="M253.118 119.957C294.237 97.5235 323.621 169.928 299.006 126.909C245.272 59.7335 167.295 121.343 159.739 125.466C159.274 133.086 224.834 246.224 237.188 267.816C261.802 310.835 189.934 142.67 253.118 119.957Z" fill="#BDD1FF"/>
<path d="M193.614 360.939C258.914 239.495 255.202 302.349 197.775 195.959C157.622 126.644 176.129 115.354 153.024 129.742C129.518 148.632 83.5719 205.893 107.128 247.062C130.683 288.232 168.753 374.503 193.614 360.939Z" fill="#BDD1FF"/>
<path d="M325.639 190.731C356.826 173.716 377.761 226.269 359.954 195.15C320.673 146.777 261.239 192.997 255.508 196.124C255.042 201.707 302.49 283.539 311.428 299.159C329.233 330.279 277.894 208.273 325.639 190.731Z" fill="#A7C1FF"/>
<path d="M302.098 324.759C352.939 234.94 324.413 324.165 282.961 247.152C253.902 197.016 267.958 188.485 250.405 199.35C232.484 213.516 162.682 271.977 179.723 301.759C196.763 331.54 283.242 335.046 302.098 324.759Z" fill="#A7C1FF"/>
<path d="M662.301 218.086C703.813 157.156 585.59 99.9715 655.135 145.154C762.247 239.666 651.639 352.27 644.011 363.466C631.223 363.019 43.0983 342.936 8.19239 320.259C-61.3525 275.076 618.176 313.528 662.301 218.086Z" fill="#A7C1FF"/>
<path d="M419.921 159.395C433.398 143.545 408.407 123.041 422.437 138.387C442.602 169.114 409.58 197.192 407.104 200.105C404.068 199.52 367.26 158.794 360.216 151.092C346.186 135.746 403.816 184.971 419.921 159.395Z" fill="#BDD1FF"/>
<path d="M369.098 214.686C363.301 230.243 385.628 236.852 372.203 230.417C350.896 215.006 367.598 184.531 368.663 181.673C370.933 181.121 406.26 198.334 412.999 201.564C426.425 207.999 374.485 191.38 369.098 214.686Z" fill="#BDD1FF"/>
<path d="M439.899 181.542C405.006 210.624 423.738 206.118 390.611 191.411C368.968 180.871 366.001 187.934 369.792 179.101C374.922 169.898 391.035 150.873 403.884 157.031C416.732 163.19 443.405 172.136 439.899 181.542Z" fill="#BDD1FF"/>
</g>
<defs>
<clipPath id="clip0_254_3">
<rect width="1362" height="413" fill="white"/>
</clipPath>
</defs>
</svg>
