<svg width="614" height="568" viewBox="0 0 614 568" fill="none" xmlns="http://www.w3.org/2000/svg">
<path d="M76.2295 395.668C105 525.999 299.5 392.726 155 469C-70.363 419.558 -39.5002 312 189.149 286.706C502.149 276.206 544.645 202.231 488.649 303.707C429.307 411.244 325.649 425.207 76.2295 395.668Z" fill="#95B0F1"/>
<path d="M393.653 257.072C515.5 184.207 464.72 -4.2925 572.649 184.208C589.149 341.707 513.826 368.347 506.863 392.707C488.985 400.423 57.8628 551.443 41.1488 392.708C28.2871 270.559 363.274 450.879 393.653 257.072Z" fill="#97B5FB"/>
<path d="M460.08 290.036C460.08 329.471 382.255 361.44 286.253 361.44C190.25 361.44 112.425 329.471 112.425 290.036C126.366 177.649 460.08 290.036 452.674 170.044C548.676 170.044 460.08 250.601 460.08 290.036Z" fill="#A7C1FF"/>
<path d="M524.314 352.83C436.407 273.126 656.998 217.654 515.696 217.735C422.1 219.456 262.681 282.84 264.477 301.654C270.665 322.193 303.613 369.017 359.043 368.172C414.467 367.328 524.279 372.444 524.314 352.83Z" fill="#A7C1FF"/>
<path d="M62.8627 423.215C62.8627 369.215 537.029 404.755 420.639 368.283C498.108 362.575 549.744 348.121 550.213 368.283C547.235 390.632 376.637 487.284 367.5 482C185.637 482 23.9999 453.499 62.8627 423.215Z" fill="#9BB9FF"/>
<path d="M61.716 368.664C66.5886 353.023 40.666 347.483 82.5556 355.365C110.203 361.117 189.746 365.65 188.091 371.535C253.639 418.95 182.667 450.765 168.639 443.95C116.818 435.779 60.017 382.658 61.716 368.664Z" fill="#A7C1FF"/>
<path d="M446.871 180.07C471.922 137.833 393.355 106.657 437.975 128.138C507.149 176.833 442.576 265.166 437.975 272.926C429.907 273.901 312.58 216.59 290.184 205.808C245.561 184.328 420.801 244.181 446.871 180.07Z" fill="#BDD1FF"/>
<path d="M411.078 81.5383C406.599 49.7014 368.575 60.696 393.486 58.2148C437.339 63.0003 447.49 137.884 445.59 140.001C442.732 143.171 412.515 124.423 338.875 153.715C289.86 173.212 422.579 125.974 411.078 81.5383Z" fill="#BDD1FF"/>
<path d="M190.394 255.239C320.813 182.381 254.307 190.292 364.776 240.005C436.659 275.103 449.198 256.012 433.235 279.866C412.506 304.419 378.673 345.313 307.811 333.227C265.108 312.669 175.248 280.775 190.394 255.239Z" fill="#BDD1FF"/>
<path d="M405.902 251.49C292.658 353.952 356.55 332.006 237.221 303.322C158.997 281.805 171.637 305.027 151.005 275.265C114.834 230.357 227.381 182.46 273.79 194.937C320.199 207.415 415.469 221.895 405.902 251.49Z" fill="#BDD1FF"/>
<path d="M150.85 239.889C281.269 167.031 188.51 244.679 279.859 285.163C351.741 320.262 378.255 302.302 362.292 326.156C341.569 350.71 266.382 349.058 199.038 332.342C151.742 320.602 125.687 273.929 150.85 239.889Z" fill="#BDD1FF"/>
<path d="M362.807 323.509C363.791 324.635 364.279 325.685 364.375 326.662C364.471 327.634 364.183 328.581 363.521 329.517C362.171 331.415 359.313 333.21 355.2 334.86C347.001 338.15 334.152 340.744 319.674 342.576C290.722 346.24 255.442 346.832 238.243 343.934C197.629 337.088 174.477 323.567 161.269 311.306C149.407 300.296 145.54 290.284 144.244 286.925C144.097 286.545 143.983 286.249 143.894 286.048C142.31 282.457 142.535 279.462 144.099 276.936C145.68 274.383 148.663 272.249 152.722 270.491C160.836 266.977 173.023 265.06 186.009 264.176C198.982 263.292 212.702 263.442 223.851 264.034C229.425 264.33 234.352 264.737 238.219 265.18C242.101 265.624 244.876 266.103 246.17 266.53C246.25 266.557 246.332 266.584 246.416 266.613C246.878 266.77 247.402 266.949 247.948 266.998C277.547 269.623 306.081 283.536 327.329 296.923C337.948 303.614 346.737 310.166 352.917 315.098C356.002 317.563 358.441 319.624 360.132 321.092C360.968 321.827 361.622 322.413 362.083 322.828C362.31 323.035 362.484 323.2 362.606 323.317C362.676 323.376 362.719 323.424 362.754 323.457C362.789 323.49 362.807 323.505 362.807 323.508V323.509Z" fill="#EAF0FF" stroke="#BDD1FF"/>
<mask id="mask0_166_292" style="mask-type:alpha" maskUnits="userSpaceOnUse" x="143" y="276" width="219" height="55">
<path d="M361.526 330.806C296.531 316.562 226.076 289.539 220.097 287.233C198.78 279.011 175.443 275.134 143.38 281.203C176.663 270.908 209.809 280.003 223.381 285.544C249.752 295.094 302.31 316.316 361.526 330.806Z" fill="white"/>
</mask>
<g mask="url(#mask0_166_292)">
<path d="M361.526 330.806C296.531 316.562 226.076 289.539 220.097 287.233C198.78 279.011 175.443 275.134 143.38 281.203C176.663 270.908 209.809 280.003 223.381 285.544C249.752 295.094 302.31 316.316 361.526 330.806Z" fill="#EAF0FF"/>
<path d="M361.526 330.806L359.217 338.883L364.053 322.779L361.526 330.806ZM220.097 287.233L223.724 279.55L220.097 287.233ZM143.38 281.203L140.859 273.34L144.849 289.328L143.38 281.203ZM223.381 285.544L219.595 293.162L219.759 293.229L219.927 293.29L223.381 285.544ZM363.835 322.729C299.577 308.646 229.68 281.848 223.724 279.55L216.472 294.915C222.473 297.229 293.485 324.478 359.217 338.883L363.835 322.729ZM223.724 279.55C200.954 270.77 175.85 266.655 141.912 273.078L144.849 289.328C175.035 283.615 196.606 287.254 216.472 294.915L223.724 279.55ZM145.901 289.066C176.185 279.698 206.925 287.99 219.595 293.162L227.168 277.925C212.693 272.017 177.14 262.116 140.859 273.34L145.901 289.066ZM219.927 293.29C245.945 302.712 299.169 324.193 358.999 338.834L364.053 322.779C305.451 308.441 253.558 287.475 226.835 277.798L219.927 293.29Z" fill="#BDD1FF"/>
</g>
<mask id="mask1_166_292" style="mask-type:alpha" maskUnits="userSpaceOnUse" x="148" y="292" width="138" height="56">
<path d="M285.394 347.459C267.631 329.338 227.945 309.472 222.197 306.728C201.706 296.945 181.094 292.907 148.535 296.539C182.709 288.792 187.808 293.107 200.726 294.152C209.463 294.86 247.628 306.757 285.394 347.459Z" fill="white"/>
</mask>
<g mask="url(#mask1_166_292)">
<path d="M285.394 347.459C267.631 329.338 227.945 309.472 222.197 306.728C201.706 296.945 181.094 292.907 148.535 296.539C182.709 288.792 187.808 293.107 200.726 294.152C209.463 294.86 247.628 306.757 285.394 347.459Z" fill="#EAF0FF"/>
<path d="M285.394 347.459L278.674 353.091L292.267 341.989L285.394 347.459ZM222.197 306.728L226.516 299.391L222.197 306.728ZM148.535 296.54L146.681 288.55L149.311 304.711L148.535 296.54ZM200.726 294.152L201.806 285.952L200.726 294.152ZM292.114 341.829C282.419 331.938 267.228 321.974 254.28 314.347C241.165 306.622 229.576 300.852 226.516 299.391L217.878 314.064C220.566 315.347 231.694 320.882 244.3 328.306C257.072 335.83 270.606 344.859 278.674 353.091L292.114 341.829ZM226.516 299.391C204.326 288.798 181.914 284.557 147.76 288.368L149.311 304.711C180.273 301.256 199.084 305.092 217.878 314.064L226.516 299.391ZM150.389 304.529C167.033 300.755 175.953 300.072 181.973 300.274C184.992 300.376 187.477 300.706 190.181 301.118C192.828 301.521 195.992 302.057 199.645 302.352L201.806 285.952C199 285.725 196.682 285.33 193.673 284.871C190.72 284.423 187.371 283.961 183.23 283.822C174.927 283.543 164.211 284.576 146.681 288.55L150.389 304.529ZM199.645 302.352C202.2 302.559 212.657 305.086 227.52 312.975C242.073 320.7 260.295 333.288 278.522 352.93L292.267 341.989C272.726 320.929 252.983 307.215 236.828 298.64C220.982 290.228 207.988 286.453 201.806 285.952L199.645 302.352Z" fill="#BDD1FF"/>
</g>
<path d="M238.395 175.048C238.395 182.327 244.642 180.702 240.655 180.702C233.839 178.638 235.186 163.364 235.186 162.026C235.706 161.375 246.224 161.487 248.225 161.487C252.212 161.487 237.564 164.772 238.395 175.048Z" fill="#A7C1FF"/>
<path d="M249.019 161.595C235.949 170.045 230.37 165.026 241.63 161.716C235.187 161.65 235.103 165.018 235.229 160.791C235.657 156.162 239.539 154.834 243.355 154.834C247.171 154.834 251.299 160.12 249.019 161.595Z" fill="#A7C1FF"/>
</svg>
