<svg width="74" height="69" viewBox="0 0 74 69" fill="none" xmlns="http://www.w3.org/2000/svg">
<rect width="74" height="69" rx="12" fill="white"/>
<path d="M21.2227 35.0515H51.9516V31.5059H21.2227V35.0515ZM21.2227 44.5065H41.2633V40.9609H21.2227V44.5065ZM13.9412 54.5524C12.8724 54.5524 11.9372 54.188 11.1355 53.4592C10.3339 52.7304 9.93311 51.9129 9.93311 51.0068V20.278C9.93311 19.3719 10.3339 18.5545 11.1355 17.8257C11.9372 17.0968 12.8724 16.7324 13.9412 16.7324H32.6458L36.6539 20.278H59.3666C60.3909 20.278 61.315 20.6425 62.1389 21.3713C62.9628 22.1001 63.3748 22.9176 63.3748 23.8237V51.0068C63.3748 51.9129 62.9628 52.7304 62.1389 53.4592C61.315 54.188 60.3909 54.5524 59.3666 54.5524H13.9412ZM13.9412 20.278V51.0068H59.3666V23.8237H34.9839L30.9758 20.278H13.9412ZM13.9412 20.278V51.0068V20.278Z" fill="#9BB7F9"/>
</svg>
