<svg width="74" height="69" viewBox="0 0 74 69" fill="none" xmlns="http://www.w3.org/2000/svg">
<rect width="74" height="69" rx="12" fill="white"/>
<path d="M23.4382 47.5603H41.8097V44.0144H23.4382V47.5603ZM16.958 56.9567C15.8892 56.9567 14.9539 56.6021 14.1522 55.893C13.3505 55.1838 12.9497 54.3565 12.9497 53.4109V17.9526C12.9497 17.007 13.3505 16.1797 14.1522 15.4705C14.9539 14.7613 15.8892 14.4067 16.958 14.4067H57.0414C58.1103 14.4067 59.0455 14.7613 59.8472 15.4705C60.6489 16.1797 61.0497 17.007 61.0497 17.9526V53.4109C61.0497 54.3565 60.6489 55.1838 59.8472 55.893C59.0455 56.6021 58.1103 56.9567 57.0414 56.9567H16.958ZM16.958 53.4109H57.0414V17.9526H16.958V53.4109Z" fill="#9BB7F9"/>
<path d="M29.2435 40.4098L24.9746 36.099L26.2372 34.8239L29.2435 37.8294L34.6247 32.3953L35.8873 33.7007L29.2435 40.4098ZM29.2435 30.6952L24.9746 26.3844L26.2372 25.1093L29.2435 28.1148L34.6247 22.6807L35.8873 23.9861L29.2435 30.6952ZM38.2021 38.1026V36.2811H49.0246V38.1026H38.2021ZM38.2021 28.388V26.5665H49.0246V28.388H38.2021Z" fill="#9BB7F9"/>
</svg>
