<svg width="595" height="607" viewBox="0 0 595 607" fill="none" xmlns="http://www.w3.org/2000/svg">
<path d="M63.8671 402.726C63.8671 540.614 244.777 509.832 129.305 509.832C-68.0879 470.735 48.2862 197.265 176.786 293.765C489.786 283.265 532.283 209.289 476.286 310.765C416.945 418.302 313.286 432.265 63.8671 402.726Z" fill="#97B5FB"/>
<path d="M381.291 264.13C419.189 131.552 452.357 2.76479 560.286 191.265C576.786 348.765 409.821 502.514 402.857 526.875C384.979 534.591 76.2863 582.765 28.7863 399.765C-2.07167 280.88 350.911 457.936 381.291 264.13Z" fill="#97B5FB"/>
<path d="M452.441 286.586C452.441 326.021 374.616 357.99 278.614 357.99C182.611 357.99 104.786 326.021 104.786 286.586C118.727 174.199 452.441 286.586 445.035 166.594C541.037 166.594 452.441 247.151 452.441 286.586Z" fill="#A7C1FF"/>
<path d="M516.675 349.379C428.768 269.676 649.359 214.204 508.057 214.285C414.461 216.006 255.042 279.39 256.838 298.204C263.026 318.742 295.974 365.567 351.403 364.722C406.828 363.877 516.64 368.994 516.675 349.379Z" fill="#A7C1FF"/>
<path d="M251.61 479.5C251.61 425.5 529.39 401.305 413 364.832C490.469 359.125 542.105 344.67 542.574 364.832C539.596 387.182 437.173 559.939 394.673 550.439C251.61 569.439 258.61 525.5 251.61 479.5Z" fill="#A7C1FF"/>
<path d="M54.077 365.214C58.9496 349.573 33.0269 344.033 74.9166 351.915C102.564 357.667 182.107 362.2 180.452 368.085C246 415.5 175.028 447.314 161 440.5C109.179 432.328 52.3779 379.208 54.077 365.214Z" fill="#A7C1FF"/>
<path d="M439.232 176.62C464.282 134.383 385.716 103.207 430.336 124.687C499.51 173.383 434.937 261.715 430.336 269.476C422.268 270.45 304.941 213.14 282.545 202.358C237.922 180.878 413.162 240.73 439.232 176.62Z" fill="#BDD1FF"/>
<path d="M403.439 78.0881C398.96 46.2512 360.936 57.2458 385.847 54.7646C429.7 59.5502 439.851 134.434 437.951 136.551C435.093 139.721 404.876 120.973 331.236 150.264C282.221 169.762 414.94 122.523 403.439 78.0881Z" fill="#BDD1FF"/>
<path d="M182.755 251.788C313.174 178.931 246.668 186.842 357.137 236.554C429.02 271.653 441.558 252.561 425.596 276.415C404.867 300.969 371.034 341.863 300.172 329.777C257.469 309.219 167.609 277.325 182.755 251.788Z" fill="#BDD1FF"/>
<path d="M398.263 248.04C285.019 350.501 348.911 328.556 229.582 299.871C151.358 278.355 163.998 301.577 143.366 271.815C107.195 226.907 219.741 179.009 266.151 191.487C312.56 203.964 407.83 218.445 398.263 248.04Z" fill="#BDD1FF"/>
<path d="M143.211 236.438C273.63 163.581 180.871 241.229 272.22 281.713C344.102 316.811 370.616 298.852 354.653 322.706C333.93 347.26 258.742 345.608 191.399 328.892C144.103 317.152 118.047 270.479 143.211 236.438Z" fill="#BDD1FF"/>
<path d="M355.168 320.059C356.152 321.184 356.64 322.235 356.736 323.212C356.832 324.183 356.544 325.131 355.882 326.067C354.532 327.965 351.674 329.76 347.561 331.41C339.362 334.7 326.513 337.294 312.035 339.126C283.083 342.79 247.803 343.382 230.604 340.484C189.99 333.637 166.838 320.117 153.63 307.856C141.768 296.846 137.901 286.834 136.605 283.475C136.458 283.094 136.344 282.799 136.255 282.597C134.671 279.007 134.896 276.011 136.46 273.486C138.041 270.933 141.024 268.798 145.083 267.041C153.196 263.527 165.384 261.61 178.37 260.726C191.343 259.842 205.062 259.992 216.212 260.584C221.786 260.88 226.713 261.287 230.58 261.73C234.462 262.174 237.237 262.653 238.531 263.08C238.611 263.106 238.693 263.134 238.777 263.163C239.239 263.32 239.763 263.499 240.309 263.547C269.908 266.173 298.442 280.086 319.69 293.473C330.309 300.164 339.098 306.716 345.278 311.647C348.363 314.113 350.802 316.173 352.493 317.642C353.329 318.376 353.983 318.963 354.444 319.378C354.671 319.585 354.845 319.75 354.967 319.867C355.037 319.926 355.08 319.973 355.115 320.007C355.15 320.039 355.168 320.055 355.168 320.058V320.059Z" fill="#EAF0FF" stroke="#BDD1FF"/>
<mask id="mask0_164_289" style="mask-type:alpha" maskUnits="userSpaceOnUse" x="135" y="273" width="219" height="55">
<path d="M353.887 327.356C288.892 313.112 218.437 286.088 212.458 283.782C191.141 275.561 167.804 271.684 135.741 277.753C169.024 267.457 202.17 276.553 215.742 282.094C242.113 291.643 294.671 312.866 353.887 327.356Z" fill="white"/>
</mask>
<g mask="url(#mask0_164_289)">
<path d="M353.887 327.356C288.892 313.112 218.437 286.088 212.458 283.782C191.141 275.561 167.804 271.684 135.741 277.753C169.024 267.457 202.17 276.553 215.742 282.094C242.113 291.643 294.671 312.866 353.887 327.356Z" fill="#EAF0FF"/>
<path d="M353.887 327.356L351.578 335.433L356.414 319.329L353.887 327.356ZM212.458 283.782L216.085 276.1L212.458 283.782ZM135.741 277.753L133.22 269.889L137.21 285.878L135.741 277.753ZM215.742 282.094L211.955 289.712L212.12 289.779L212.288 289.839L215.742 282.094ZM356.196 319.279C291.938 305.196 222.041 278.398 216.085 276.1L208.833 291.464C214.834 293.779 285.846 321.027 351.578 335.433L356.196 319.279ZM216.085 276.1C193.315 267.32 168.211 263.204 134.273 269.627L137.21 285.878C167.396 280.165 188.967 283.803 208.833 291.464L216.085 276.1ZM138.262 285.616C168.546 276.248 199.286 284.539 211.955 289.712L219.529 274.475C205.054 268.567 169.501 258.666 133.22 269.889L138.262 285.616ZM212.288 289.839C238.306 299.261 291.53 320.743 351.36 335.383L356.414 319.329C297.812 304.991 245.919 284.025 219.196 274.348L212.288 289.839Z" fill="#BDD1FF"/>
</g>
<mask id="mask1_164_289" style="mask-type:alpha" maskUnits="userSpaceOnUse" x="140" y="288" width="138" height="57">
<path d="M277.755 344.009C259.992 325.888 220.306 306.021 214.558 303.278C194.066 293.495 173.455 289.457 140.896 293.089C175.07 285.341 180.169 289.657 193.087 290.702C201.824 291.409 239.989 303.306 277.755 344.009Z" fill="white"/>
</mask>
<g mask="url(#mask1_164_289)">
<path d="M277.755 344.009C259.992 325.888 220.306 306.021 214.558 303.278C194.066 293.495 173.455 289.457 140.896 293.089C175.07 285.341 180.169 289.657 193.087 290.702C201.824 291.409 239.989 303.306 277.755 344.009Z" fill="#EAF0FF"/>
<path d="M277.755 344.009L271.035 349.64L284.627 338.539L277.755 344.009ZM214.558 303.278L218.877 295.941L214.558 303.278ZM140.896 293.089L139.042 285.1L141.672 301.261L140.896 293.089ZM193.087 290.702L194.167 282.502L193.087 290.702ZM284.475 338.379C274.78 328.488 259.588 318.523 246.641 310.897C233.526 303.172 221.937 297.402 218.877 295.941L210.239 310.614C212.927 311.897 224.055 317.432 236.661 324.856C249.433 332.38 262.967 341.409 271.035 349.64L284.475 338.379ZM218.877 295.941C196.687 285.348 174.275 281.107 140.121 284.918L141.672 301.261C172.634 297.806 191.445 301.642 210.239 310.614L218.877 295.941ZM142.75 301.079C159.394 297.305 168.314 296.621 174.334 296.824C177.353 296.926 179.838 297.256 182.542 297.668C185.189 298.071 188.353 298.607 192.006 298.902L194.167 282.502C191.361 282.275 189.043 281.88 186.034 281.421C183.081 280.973 179.732 280.511 175.591 280.372C167.288 280.093 156.572 281.126 139.042 285.1L142.75 301.079ZM192.006 298.902C194.561 299.109 205.018 301.636 219.881 309.525C234.434 317.25 252.656 329.837 270.882 349.48L284.627 338.539C265.087 317.479 245.344 303.765 229.189 295.19C213.342 286.778 200.349 283.002 194.167 282.502L192.006 298.902Z" fill="#BDD1FF"/>
</g>
<path d="M230.756 171.598C230.756 178.877 237.003 177.252 233.016 177.252C226.2 175.188 227.547 159.914 227.547 158.576C228.067 157.925 238.585 158.037 240.586 158.037C244.573 158.037 229.925 161.321 230.756 171.598Z" fill="#A7C1FF"/>
<path d="M241.38 158.144C228.31 166.595 222.731 161.576 233.991 158.266C227.548 158.2 227.464 161.568 227.59 157.34C228.018 152.711 231.9 151.384 235.716 151.384C239.532 151.384 243.66 156.67 241.38 158.144Z" fill="#A7C1FF"/>
</svg>
