<svg width="184" height="62" viewBox="0 0 184 62" fill="none" xmlns="http://www.w3.org/2000/svg">
<path d="M43.3844 19.3574C44.3367 12.4901 33.5644 12.0343 39.8619 12.8005C50.3571 16.0573 46.925 30.9986 46.7499 32.2605C45.8431 32.7747 29.2451 30.6486 26.0843 30.2641C19.7868 29.4979 43.3519 29.2133 43.3844 19.3574Z" fill="#BDD1FF"/>
<path d="M34.4642 7.81623C32.4206 3.74993 28.4476 7.0352 31.2747 5.51766C36.6868 4.0765 41.4502 13.6583 41.326 14.0332C41.1397 14.5949 36.6744 13.5116 29.3624 20.9483C24.4952 25.8984 37.9384 13.2415 34.4642 7.81623Z" fill="#BDD1FF"/>
<path d="M16.6379 41.6507C28.5904 25.6598 21.1041 29.884 36.5295 31.3147C46.6979 32.6154 47.2717 29.4538 46.5196 33.4183C45.2373 37.7037 43.1829 44.8077 34.2301 46.5513C28.2034 45.8183 16.0623 45.8027 16.6379 41.6507Z" fill="#BDD1FF"/>
<path d="M41.9387 30.9036C33.4248 50.057 39.9343 44.071 24.4619 45.8873C14.1901 46.7133 16.7894 49.2337 12.9341 46.2143C6.52123 41.8977 17.5482 30.1111 23.6286 29.5823C29.7091 29.0534 41.6615 26.4714 41.9387 30.9036Z" fill="#BDD1FF"/>
<path d="M11.2326 41.4667C23.1851 25.4759 15.913 40.3207 28.6389 41.4201C38.8072 42.7207 41.0872 39.0467 40.3354 43.0114C39.0531 47.2964 30.0854 50.6481 21.3284 51.6021C15.1782 52.2724 9.87723 47.2377 11.2326 41.4667Z" fill="#BDD1FF"/>
<path d="M40.2857 42.5964C40.4596 42.7034 40.574 42.8268 40.6366 42.9634C40.6989 43.0998 40.7099 43.2511 40.6742 43.4161C40.6028 43.7471 40.3429 44.1308 39.9344 44.5488C39.1184 45.3841 37.7198 46.3451 36.0948 47.2801C32.8447 49.1491 28.6988 50.9074 26.5227 51.3361C21.3899 52.3474 18.0025 51.6308 15.8501 50.6071C13.9162 49.6874 12.978 48.5194 12.6649 48.1298C12.6295 48.0858 12.6021 48.0514 12.5822 48.0288C12.2093 47.6048 12.0906 47.1691 12.1671 46.7311C12.2439 46.2918 12.5176 45.8471 12.9361 45.4071C13.7732 44.5271 15.1824 43.6738 16.7187 42.9311C18.2543 42.1884 19.9146 41.5571 21.2519 41.1208C21.9206 40.9028 22.5083 40.7334 22.9591 40.6231C23.1845 40.5681 23.3755 40.5278 23.5251 40.5034C23.6756 40.4791 23.7819 40.4714 23.8394 40.4801C23.8694 40.4848 23.8939 40.4854 23.9253 40.4761C27.5631 39.3974 31.6215 39.9074 34.7878 40.6981C36.3708 41.0934 37.7299 41.5584 38.7014 41.9298C39.187 42.1154 39.5759 42.2774 39.8469 42.3954C39.9825 42.4544 40.0887 42.5024 40.163 42.5371C40.2379 42.5718 40.279 42.5921 40.2857 42.5964Z" fill="#EAF0FF"/>
<mask id="mask0_38_46" style="mask-type:alpha" maskUnits="userSpaceOnUse" x="12" y="43" width="29" height="5">
<path d="M40.4656 43.6729C32.1037 44.8479 22.4883 44.5645 21.6718 44.5385C18.7604 44.4469 15.8169 45.0352 12.3149 47.3745C15.7599 44.4089 20.1114 44.0562 21.9796 44.1555C25.5516 44.1859 32.7752 44.5402 40.4656 43.6729Z" fill="white"/>
</mask>
<g mask="url(#mask0_38_46)">
<path d="M40.4661 43.6729C32.1042 44.8479 22.4888 44.5645 21.6722 44.5385C18.7609 44.4469 15.8173 45.0352 12.3154 47.3745C15.7604 44.4089 20.1119 44.0562 21.9801 44.1555C25.5521 44.1859 32.7757 44.5402 40.4661 43.6729Z" fill="#EAF0FF"/>
<path d="M40.4659 43.6728L40.5121 44.0781L40.4302 43.2661L40.4659 43.6728ZM21.6721 44.5384L21.6933 44.1298L21.6721 44.5384ZM12.3153 47.3744L12.0596 47.0644L12.5307 47.7151L12.3153 47.3744ZM21.98 44.1554L21.9502 44.5641L21.959 44.5648H21.9678L21.98 44.1554ZM40.4195 43.2674C32.0943 44.4371 22.5087 44.1554 21.6933 44.1298L21.6508 44.9474C22.4687 44.9734 32.1135 45.2581 40.5121 44.0781L40.4195 43.2674ZM21.6933 44.1298C18.7041 44.0354 15.6769 44.6444 12.0998 47.0341L12.5307 47.7151C15.9575 45.4258 18.8173 44.8584 21.6508 44.9474L21.6933 44.1298ZM12.571 47.6844C15.903 44.8161 20.1326 44.4674 21.9502 44.5641L22.0098 43.7471C20.0909 43.6448 15.6176 44.0018 12.0596 47.0644L12.571 47.6844ZM21.9678 44.5648C25.5213 44.5948 32.78 44.9501 40.5014 44.0794L40.4302 43.2661C32.7708 44.1298 25.5826 43.7768 21.9921 43.7464L21.9678 44.5648Z" fill="#BDD1FF"/>
<path d="M22.8753 46.8559C20.7383 46.6036 18.7409 46.7729 16.3804 47.6772C16.8258 47.4419 17.1999 47.2799 17.5313 47.1609C17.9478 47.0116 18.3013 46.9282 18.6533 46.8522C18.7051 46.8409 18.7569 46.8299 18.8091 46.8189C19.1102 46.7549 19.4198 46.6889 19.764 46.5856C20.2557 46.4379 21.7576 46.2999 23.947 46.6632C25.2461 46.8789 26.7818 47.2702 28.4834 47.9376C27.9106 47.7862 27.3387 47.6519 26.7914 47.5332C24.9035 47.1249 23.2854 46.9042 22.8753 46.8559Z" fill="#BDD1FF" stroke="#BDD1FF" stroke-width="10"/>
</g>
<path d="M65.2692 39.4585C64.9531 39.4585 64.6686 39.3668 64.4156 39.1835C64.1785 38.9835 63.9967 38.7002 63.8703 38.3335L59.2229 23.2835C59.1754 23.1002 59.1517 22.9585 59.1517 22.8585C59.1359 22.5418 59.2229 22.2835 59.4126 22.0835C59.618 21.8668 59.8789 21.7585 60.195 21.7585C60.4479 21.7585 60.6693 21.8418 60.8589 22.0085C61.0486 22.1752 61.183 22.3918 61.262 22.6585L65.2455 36.4585L69.2528 22.7085C69.3318 22.4252 69.482 22.2002 69.7033 22.0335C69.9404 21.8502 70.2012 21.7585 70.4857 21.7585C70.7703 21.7585 71.0232 21.8502 71.2445 22.0335C71.4816 22.2002 71.6397 22.4252 71.7187 22.7085L75.7259 36.4585L79.7095 22.6585C79.7885 22.3918 79.9229 22.1752 80.1125 22.0085C80.3022 21.8418 80.5235 21.7585 80.7765 21.7585C81.0926 21.7585 81.3455 21.8668 81.5352 22.0835C81.7407 22.2835 81.8356 22.5418 81.8198 22.8585C81.8198 22.9585 81.7961 23.1002 81.7486 23.2835L77.1012 38.3335C76.9747 38.7002 76.7851 38.9835 76.5321 39.1835C76.295 39.3668 76.0184 39.4585 75.7022 39.4585C75.3861 39.4585 75.0936 39.3585 74.8249 39.1585C74.572 38.9418 74.3981 38.6668 74.3033 38.3335L70.4857 25.5835L66.6682 38.3335C66.5734 38.6668 66.3916 38.9418 66.1229 39.1585C65.8699 39.3585 65.5854 39.4585 65.2692 39.4585ZM85.3942 39.4585C85.0938 39.4585 84.8409 39.3502 84.6354 39.1335C84.4299 38.9168 84.3272 38.6502 84.3272 38.3335V22.1085C84.3272 21.7918 84.4299 21.5252 84.6354 21.3085C84.8409 21.0752 85.0938 20.9585 85.3942 20.9585C85.6945 20.9585 85.9474 21.0752 86.1529 21.3085C86.3742 21.5252 86.4849 21.7918 86.4849 22.1085V28.6335C87.0856 27.9335 87.7337 27.3752 88.4292 26.9585C89.1248 26.5418 89.9467 26.3335 90.8952 26.3335C91.7646 26.3335 92.5155 26.5502 93.1478 26.9835C93.7959 27.4168 94.2859 28.0085 94.6179 28.7585C94.9656 29.5085 95.1395 30.3335 95.1395 31.2335V38.3335C95.1395 38.6502 95.0289 38.9168 94.8076 39.1335C94.6021 39.3502 94.3491 39.4585 94.0488 39.4585C93.7485 39.4585 93.4955 39.3502 93.29 39.1335C93.0845 38.9168 92.9818 38.6502 92.9818 38.3335V31.4835C92.9818 29.4502 92.1124 28.4335 90.3735 28.4335C89.5832 28.4335 88.8718 28.6502 88.2395 29.0835C87.623 29.5168 87.0382 30.1002 86.4849 30.8335V38.3335C86.4849 38.6502 86.3742 38.9168 86.1529 39.1335C85.9474 39.3502 85.6945 39.4585 85.3942 39.4585ZM101.859 39.5835C101.163 39.5835 100.515 39.4335 99.9144 39.1335C99.3295 38.8335 98.8632 38.4002 98.5154 37.8335C98.1676 37.2502 97.9937 36.5835 97.9937 35.8335C97.9937 34.6002 98.4522 33.6168 99.369 32.8835C100.302 32.1502 101.661 31.7835 103.447 31.7835H106.316V31.5835C106.316 30.4835 106.056 29.6918 105.534 29.2085C105.028 28.7252 104.23 28.4835 103.139 28.4835C102.538 28.4835 102.001 28.5335 101.527 28.6335C101.068 28.7335 100.555 28.8835 99.9855 29.0835C99.859 29.1168 99.7563 29.1335 99.6772 29.1335C99.4401 29.1335 99.2346 29.0418 99.0608 28.8585C98.8869 28.6752 98.7999 28.4502 98.7999 28.1835C98.7999 27.7335 99.0054 27.4168 99.4164 27.2335C100.76 26.6335 102.127 26.3335 103.518 26.3335C104.609 26.3335 105.526 26.5668 106.269 27.0335C107.028 27.5002 107.581 28.1085 107.929 28.8585C108.292 29.5918 108.474 30.3918 108.474 31.2585V38.3335C108.474 38.6502 108.363 38.9168 108.142 39.1335C107.937 39.3502 107.684 39.4585 107.383 39.4585C107.083 39.4585 106.83 39.3502 106.625 39.1335C106.419 38.9168 106.316 38.6502 106.316 38.3335V37.6835C105.147 38.9502 103.661 39.5835 101.859 39.5835ZM102.665 37.5835C103.36 37.5835 104.032 37.4085 104.68 37.0585C105.328 36.6918 105.874 36.2418 106.316 35.7085V33.6085H103.732C101.345 33.6085 100.151 34.2668 100.151 35.5835C100.151 36.1835 100.341 36.6668 100.721 37.0335C101.116 37.4002 101.764 37.5835 102.665 37.5835ZM113.158 39.4585C112.857 39.4585 112.604 39.3502 112.399 39.1335C112.193 38.9168 112.091 38.6502 112.091 38.3335V22.1085C112.091 21.7918 112.193 21.5252 112.399 21.3085C112.604 21.0752 112.857 20.9585 113.158 20.9585C113.474 20.9585 113.735 21.0668 113.94 21.2835C114.146 21.5002 114.248 21.7752 114.248 22.1085V38.3335C114.248 38.6502 114.138 38.9168 113.916 39.1335C113.711 39.3502 113.458 39.4585 113.158 39.4585ZM123.402 39.5835C121.473 39.5835 119.963 39.0085 118.873 37.8585C117.798 36.6918 117.26 35.0585 117.26 32.9585C117.26 31.7752 117.466 30.6835 117.877 29.6835C118.288 28.6835 118.92 27.8752 119.774 27.2585C120.627 26.6418 121.679 26.3335 122.927 26.3335C124.097 26.3335 125.109 26.6252 125.962 27.2085C126.816 27.7752 127.464 28.5418 127.907 29.5085C128.349 30.4585 128.571 31.5002 128.571 32.6335C128.571 32.9502 128.468 33.2168 128.262 33.4335C128.073 33.6502 127.812 33.7585 127.48 33.7585H119.442C119.568 34.9252 119.979 35.8335 120.675 36.4835C121.37 37.1335 122.342 37.4585 123.591 37.4585C124.255 37.4585 124.832 37.3918 125.322 37.2585C125.828 37.1252 126.318 36.9335 126.792 36.6835C126.919 36.6168 127.061 36.5835 127.219 36.5835C127.472 36.5835 127.693 36.6752 127.883 36.8585C128.073 37.0418 128.168 37.2752 128.168 37.5585C128.168 37.9252 127.962 38.2335 127.551 38.4835C126.935 38.8502 126.326 39.1252 125.725 39.3085C125.125 39.4918 124.35 39.5835 123.402 39.5835ZM126.437 31.9085C126.389 31.0918 126.184 30.4085 125.82 29.8585C125.472 29.3085 125.038 28.9085 124.516 28.6585C123.994 28.3918 123.465 28.2585 122.927 28.2585C122.39 28.2585 121.86 28.3918 121.339 28.6585C120.817 28.9085 120.382 29.3085 120.035 29.8585C119.687 30.4085 119.489 31.0918 119.442 31.9085H126.437ZM132.492 39.4585C132.192 39.4585 131.939 39.3502 131.734 39.1335C131.528 38.9168 131.425 38.6502 131.425 38.3335V27.6085C131.425 27.2918 131.528 27.0252 131.734 26.8085C131.939 26.5752 132.192 26.4585 132.492 26.4585C132.793 26.4585 133.046 26.5752 133.251 26.8085C133.473 27.0252 133.583 27.2918 133.583 27.6085V28.6835C134.69 27.1168 135.931 26.3335 137.306 26.3335H137.424C137.725 26.3335 137.97 26.4418 138.159 26.6585C138.365 26.8752 138.468 27.1418 138.468 27.4585C138.468 27.7752 138.365 28.0335 138.159 28.2335C137.954 28.4335 137.693 28.5335 137.377 28.5335H137.258C136.5 28.5335 135.804 28.7335 135.172 29.1335C134.54 29.5168 134.01 30.0502 133.583 30.7335V38.3335C133.583 38.6502 133.473 38.9168 133.251 39.1335C133.046 39.3502 132.793 39.4585 132.492 39.4585ZM145.672 39.5835C143.743 39.5835 142.06 39.1002 140.621 38.1335C140.463 38.0168 140.344 37.9002 140.265 37.7835C140.186 37.6502 140.147 37.4668 140.147 37.2335C140.147 36.9335 140.234 36.6835 140.408 36.4835C140.582 36.2668 140.811 36.1585 141.095 36.1585C141.269 36.1585 141.435 36.2002 141.593 36.2835C142.842 36.9835 144.107 37.3335 145.387 37.3335C146.889 37.3335 148.035 37.0668 148.825 36.5335C149.616 36.0002 150.011 35.0918 150.011 33.8085C150.011 32.7752 149.679 31.9585 149.015 31.3585C148.367 30.7585 147.474 30.4585 146.335 30.4585C145.023 30.4585 143.806 30.8168 142.684 31.5335C142.652 31.5502 142.557 31.6085 142.399 31.7085C142.257 31.7918 142.075 31.8335 141.854 31.8335C141.411 31.8335 141.04 31.7002 140.74 31.4335C140.439 31.1668 140.289 30.8168 140.289 30.3835C140.289 30.1835 140.305 29.9835 140.336 29.7835L141.404 23.1335C141.451 22.7502 141.585 22.4502 141.807 22.2335C142.044 22.0002 142.328 21.8835 142.66 21.8835H150.272C150.556 21.8835 150.793 21.9918 150.983 22.2085C151.188 22.4085 151.291 22.6585 151.291 22.9585C151.291 23.2585 151.188 23.5085 150.983 23.7085C150.793 23.9085 150.556 24.0085 150.272 24.0085H143.395L142.636 29.3085C143.838 28.6252 145.174 28.2835 146.644 28.2835C147.813 28.2835 148.809 28.5252 149.631 29.0085C150.469 29.4918 151.101 30.1585 151.528 31.0085C151.955 31.8585 152.168 32.8335 152.168 33.9335C152.168 35.6168 151.623 36.9835 150.532 38.0335C149.442 39.0668 147.821 39.5835 145.672 39.5835ZM156.316 39.3335C155.953 39.3335 155.652 39.2168 155.415 38.9835C155.178 38.7335 155.06 38.4168 155.06 38.0335C155.06 37.1668 155.297 36.3668 155.771 35.6335C156.261 34.9002 156.846 34.2585 157.526 33.7085C158.221 33.1418 159.13 32.4752 160.252 31.7085C161.217 31.0585 161.983 30.5085 162.552 30.0585C163.122 29.6085 163.596 29.1168 163.975 28.5835C164.355 28.0502 164.544 27.4835 164.544 26.8835C164.544 25.9335 164.244 25.1835 163.643 24.6335C163.058 24.0668 162.11 23.7835 160.798 23.7835C159.375 23.7835 158.024 24.0835 156.743 24.6835C156.585 24.7668 156.435 24.8085 156.293 24.8085C156.04 24.8085 155.826 24.7168 155.652 24.5335C155.479 24.3502 155.392 24.1168 155.392 23.8335C155.392 23.4168 155.566 23.1085 155.913 22.9085C157.526 22.0585 159.28 21.6335 161.177 21.6335C162.189 21.6335 163.106 21.8502 163.928 22.2835C164.765 22.7002 165.422 23.2918 165.896 24.0585C166.386 24.8252 166.631 25.7085 166.631 26.7085C166.631 27.6918 166.354 28.6085 165.801 29.4585C165.263 30.2918 164.615 31.0252 163.857 31.6585C163.098 32.2918 162.11 33.0252 160.893 33.8585C159.786 34.6418 158.948 35.2752 158.379 35.7585C157.826 36.2252 157.439 36.7085 157.217 37.2085H165.469C165.753 37.2085 165.991 37.3168 166.18 37.5335C166.386 37.7335 166.489 37.9835 166.489 38.2835C166.489 38.5835 166.386 38.8335 166.18 39.0335C165.991 39.2335 165.753 39.3335 165.469 39.3335H156.316Z" fill="#A3BEFF"/>
</svg>
